<mxfile host="app.diagrams.net" agent="Mozilla/5.0 (Macintosh; Intel Mac OS X 10_15_7) AppleWebKit/537.36 (KHTML, like Gecko) Chrome/134.0.0.0 Safari/537.36" version="26.1.3">
  <diagram name="PÃ¡gina-1" id="o4Ug9iLXvjtABvZB07Sa">
    <mxGraphModel dx="1434" dy="1930" grid="1" gridSize="10" guides="1" tooltips="1" connect="1" arrows="1" fold="1" page="1" pageScale="1" pageWidth="827" pageHeight="1169" math="0" shadow="0">
      <root>
        <mxCell id="0" />
        <mxCell id="1" parent="0" />
        <mxCell id="3Ki8Myqe8ZQr1x6625yt-15" value="" style="endArrow=classic;html=1;rounded=1;exitX=1;exitY=0.5;exitDx=0;exitDy=0;entryX=0.5;entryY=0;entryDx=0;entryDy=0;fillColor=#f8cecc;strokeColor=#b85450;strokeWidth=2;curved=0;" parent="1" source="3Ki8Myqe8ZQr1x6625yt-2" edge="1">
          <mxGeometry width="50" height="50" relative="1" as="geometry">
            <mxPoint x="310" y="-680" as="sourcePoint" />
            <mxPoint x="660" y="-660" as="targetPoint" />
            <Array as="points">
              <mxPoint x="660" y="-870" />
            </Array>
          </mxGeometry>
        </mxCell>
        <mxCell id="3Ki8Myqe8ZQr1x6625yt-14" value="" style="endArrow=none;html=1;rounded=0;exitX=1;exitY=0.5;exitDx=0;exitDy=0;fillColor=#f8cecc;strokeColor=#b85450;strokeWidth=2;" parent="1" source="3Ki8Myqe8ZQr1x6625yt-3" edge="1">
          <mxGeometry width="50" height="50" relative="1" as="geometry">
            <mxPoint x="310" y="-680" as="sourcePoint" />
            <mxPoint x="660" y="-750" as="targetPoint" />
          </mxGeometry>
        </mxCell>
        <mxCell id="3Ki8Myqe8ZQr1x6625yt-1" value="Created" style="rounded=1;whiteSpace=wrap;html=1;fontSize=15;fillColor=#f5f5f5;strokeColor=#666666;strokeWidth=3;fontColor=#333333;" parent="1" vertex="1">
          <mxGeometry x="274" y="-1100" width="120" height="60" as="geometry" />
        </mxCell>
        <mxCell id="3Ki8Myqe8ZQr1x6625yt-4" value="Completed" style="rounded=1;whiteSpace=wrap;html=1;fontSize=15;strokeWidth=3;fillColor=#d5e8d4;strokeColor=#82b366;" parent="1" vertex="1">
          <mxGeometry x="274" y="-660" width="120" height="60" as="geometry" />
        </mxCell>
        <mxCell id="3Ki8Myqe8ZQr1x6625yt-5" value="Error" style="rounded=1;whiteSpace=wrap;html=1;fontSize=15;fillColor=#f8cecc;strokeColor=#b85450;strokeWidth=3;" parent="1" vertex="1">
          <mxGeometry x="600" y="-660" width="120" height="60" as="geometry" />
        </mxCell>
        <mxCell id="3Ki8Myqe8ZQr1x6625yt-6" value="Obsolete" style="rounded=1;whiteSpace=wrap;html=1;fontSize=15;strokeWidth=3;fillColor=#dae8fc;strokeColor=#6c8ebf;" parent="1" vertex="1">
          <mxGeometry x="440" y="-660" width="120" height="60" as="geometry" />
        </mxCell>
        <mxCell id="3Ki8Myqe8ZQr1x6625yt-7" value="" style="endArrow=classic;html=1;rounded=0;exitX=0.5;exitY=1;exitDx=0;exitDy=0;strokeWidth=2;fillColor=#f5f5f5;strokeColor=#666666;entryX=0.5;entryY=0;entryDx=0;entryDy=0;" parent="1" source="3Ki8Myqe8ZQr1x6625yt-1" edge="1" target="3Ki8Myqe8ZQr1x6625yt-2">
          <mxGeometry width="50" height="50" relative="1" as="geometry">
            <mxPoint x="310" y="-770" as="sourcePoint" />
            <mxPoint x="334" y="-990" as="targetPoint" />
          </mxGeometry>
        </mxCell>
        <mxCell id="3Ki8Myqe8ZQr1x6625yt-8" value="Activate" style="text;html=1;align=center;verticalAlign=middle;whiteSpace=wrap;rounded=0;fontSize=14;" parent="1" vertex="1">
          <mxGeometry x="334" y="-1040" width="76" height="30" as="geometry" />
        </mxCell>
        <mxCell id="3Ki8Myqe8ZQr1x6625yt-9" value="" style="endArrow=classic;html=1;rounded=0;exitX=0.5;exitY=1;exitDx=0;exitDy=0;strokeWidth=2;fillColor=#f5f5f5;strokeColor=#666666;" parent="1" source="3Ki8Myqe8ZQr1x6625yt-2" edge="1">
          <mxGeometry width="50" height="50" relative="1" as="geometry">
            <mxPoint x="310" y="-680" as="sourcePoint" />
            <mxPoint x="334" y="-780" as="targetPoint" />
          </mxGeometry>
        </mxCell>
        <mxCell id="3Ki8Myqe8ZQr1x6625yt-10" value="Claim" style="text;html=1;align=center;verticalAlign=middle;whiteSpace=wrap;rounded=0;fontSize=14;" parent="1" vertex="1">
          <mxGeometry x="274" y="-830" width="60" height="30" as="geometry" />
        </mxCell>
        <mxCell id="3Ki8Myqe8ZQr1x6625yt-11" value="" style="endArrow=classic;html=1;rounded=1;exitX=0.983;exitY=0.617;exitDx=0;exitDy=0;entryX=0.5;entryY=0;entryDx=0;entryDy=0;fillColor=#dae8fc;strokeColor=#6c8ebf;strokeWidth=2;exitPerimeter=0;curved=0;" parent="1" source="3Ki8Myqe8ZQr1x6625yt-2" target="3Ki8Myqe8ZQr1x6625yt-6" edge="1">
          <mxGeometry width="50" height="50" relative="1" as="geometry">
            <mxPoint x="310" y="-680" as="sourcePoint" />
            <mxPoint x="360" y="-730" as="targetPoint" />
            <Array as="points">
              <mxPoint x="500" y="-863" />
            </Array>
          </mxGeometry>
        </mxCell>
        <mxCell id="3Ki8Myqe8ZQr1x6625yt-12" value="Skip" style="text;html=1;align=center;verticalAlign=middle;whiteSpace=wrap;rounded=0;fontSize=14;" parent="1" vertex="1">
          <mxGeometry x="450" y="-710" width="60" height="30" as="geometry" />
        </mxCell>
        <mxCell id="3Ki8Myqe8ZQr1x6625yt-13" value="" style="endArrow=none;html=1;rounded=0;fillColor=#dae8fc;strokeColor=#6c8ebf;strokeWidth=2;" parent="1" edge="1">
          <mxGeometry width="50" height="50" relative="1" as="geometry">
            <mxPoint x="394" y="-740" as="sourcePoint" />
            <mxPoint x="500" y="-740" as="targetPoint" />
          </mxGeometry>
        </mxCell>
        <mxCell id="3Ki8Myqe8ZQr1x6625yt-16" value="Fail" style="text;html=1;align=center;verticalAlign=middle;whiteSpace=wrap;rounded=0;fontSize=14;" parent="1" vertex="1">
          <mxGeometry x="610" y="-710" width="60" height="30" as="geometry" />
        </mxCell>
        <mxCell id="3Ki8Myqe8ZQr1x6625yt-17" value="" style="endArrow=classic;html=1;rounded=0;entryX=0.5;entryY=0;entryDx=0;entryDy=0;exitX=0.5;exitY=1;exitDx=0;exitDy=0;fillColor=#d5e8d4;strokeColor=#82b366;strokeWidth=2;" parent="1" source="3Ki8Myqe8ZQr1x6625yt-3" target="3Ki8Myqe8ZQr1x6625yt-4" edge="1">
          <mxGeometry width="50" height="50" relative="1" as="geometry">
            <mxPoint x="310" y="-680" as="sourcePoint" />
            <mxPoint x="360" y="-730" as="targetPoint" />
          </mxGeometry>
        </mxCell>
        <mxCell id="3Ki8Myqe8ZQr1x6625yt-23" value="Release" style="text;html=1;align=center;verticalAlign=middle;whiteSpace=wrap;rounded=0;fontSize=14;" parent="1" vertex="1">
          <mxGeometry x="370" y="-830" width="60" height="30" as="geometry" />
        </mxCell>
        <mxCell id="3Ki8Myqe8ZQr1x6625yt-28" value="Reassign" style="text;html=1;align=center;verticalAlign=middle;whiteSpace=wrap;rounded=0;fontSize=14;" parent="1" vertex="1">
          <mxGeometry x="200" y="-940" width="60" height="40" as="geometry" />
        </mxCell>
        <mxCell id="3Ki8Myqe8ZQr1x6625yt-3" value="Reserved" style="rounded=1;whiteSpace=wrap;html=1;fontSize=15;strokeWidth=3;fillColor=#f5f5f5;fontColor=#333333;strokeColor=#666666;" parent="1" vertex="1">
          <mxGeometry x="274" y="-780" width="120" height="60" as="geometry" />
        </mxCell>
        <mxCell id="3Ki8Myqe8ZQr1x6625yt-33" value="" style="endArrow=none;dashed=1;html=1;rounded=0;" parent="1" edge="1">
          <mxGeometry width="50" height="50" relative="1" as="geometry">
            <mxPoint x="120" y="-1010" as="sourcePoint" />
            <mxPoint x="720" y="-1010" as="targetPoint" />
          </mxGeometry>
        </mxCell>
        <mxCell id="3Ki8Myqe8ZQr1x6625yt-34" value="" style="endArrow=none;dashed=1;html=1;rounded=0;" parent="1" edge="1">
          <mxGeometry width="50" height="50" relative="1" as="geometry">
            <mxPoint x="120" y="-679" as="sourcePoint" />
            <mxPoint x="720" y="-676" as="targetPoint" />
          </mxGeometry>
        </mxCell>
        <mxCell id="3Ki8Myqe8ZQr1x6625yt-41" value="" style="endArrow=classic;html=1;rounded=0;exitX=0.75;exitY=0;exitDx=0;exitDy=0;strokeWidth=2;fillColor=#f5f5f5;strokeColor=#666666;entryX=0.75;entryY=1;entryDx=0;entryDy=0;" parent="1" source="3Ki8Myqe8ZQr1x6625yt-3" target="3Ki8Myqe8ZQr1x6625yt-2" edge="1">
          <mxGeometry width="50" height="50" relative="1" as="geometry">
            <mxPoint x="344" y="-830" as="sourcePoint" />
            <mxPoint x="344" y="-770" as="targetPoint" />
          </mxGeometry>
        </mxCell>
        <mxCell id="3Ki8Myqe8ZQr1x6625yt-42" value="" style="endArrow=classic;html=1;rounded=1;exitX=0;exitY=0.5;exitDx=0;exitDy=0;strokeWidth=2;fillColor=#f5f5f5;strokeColor=#666666;curved=0;" parent="1" source="3Ki8Myqe8ZQr1x6625yt-51" edge="1">
          <mxGeometry width="50" height="50" relative="1" as="geometry">
            <mxPoint x="320" y="-1030" as="sourcePoint" />
            <mxPoint x="270" y="-740" as="targetPoint" />
            <Array as="points">
              <mxPoint x="160" y="-960" />
              <mxPoint x="160" y="-740" />
            </Array>
          </mxGeometry>
        </mxCell>
        <mxCell id="3Ki8Myqe8ZQr1x6625yt-45" value="" style="endArrow=classic;html=1;rounded=1;exitX=0;exitY=0.25;exitDx=0;exitDy=0;fillColor=#ffe6cc;strokeColor=#d79b00;strokeWidth=2;curved=0;entryX=0;entryY=1;entryDx=0;entryDy=0;" parent="1" source="3Ki8Myqe8ZQr1x6625yt-3" target="3Ki8Myqe8ZQr1x6625yt-51" edge="1">
          <mxGeometry width="50" height="50" relative="1" as="geometry">
            <mxPoint x="400" y="-830" as="sourcePoint" />
            <mxPoint x="280" y="-940" as="targetPoint" />
            <Array as="points">
              <mxPoint x="190" y="-765" />
              <mxPoint x="190" y="-939" />
            </Array>
          </mxGeometry>
        </mxCell>
        <mxCell id="3Ki8Myqe8ZQr1x6625yt-51" value="Task Assignment Strategy" style="ellipse;whiteSpace=wrap;html=1;dashed=1;fillColor=#fff2cc;strokeColor=#d6b656;fontSize=13;" parent="1" vertex="1">
          <mxGeometry x="289" y="-990" width="90" height="60" as="geometry" />
        </mxCell>
        <mxCell id="3Ki8Myqe8ZQr1x6625yt-53" value="" style="endArrow=none;html=1;rounded=0;entryX=0;entryY=0.5;entryDx=0;entryDy=0;fillColor=#fff2cc;strokeColor=#d6b656;strokeWidth=2;" parent="1" target="3Ki8Myqe8ZQr1x6625yt-2" edge="1">
          <mxGeometry width="50" height="50" relative="1" as="geometry">
            <mxPoint x="190" y="-870" as="sourcePoint" />
            <mxPoint x="340" y="-970" as="targetPoint" />
            <Array as="points">
              <mxPoint x="260" y="-870" />
            </Array>
          </mxGeometry>
        </mxCell>
        <mxCell id="3Ki8Myqe8ZQr1x6625yt-2" value="Ready" style="rounded=1;whiteSpace=wrap;html=1;fontSize=15;strokeWidth=3;fillColor=#f5f5f5;fontColor=#333333;strokeColor=#666666;" parent="1" vertex="1">
          <mxGeometry x="274" y="-900" width="120" height="60" as="geometry" />
        </mxCell>
        <mxCell id="3Ki8Myqe8ZQr1x6625yt-56" value="No user resolved" style="text;html=1;align=center;verticalAlign=middle;whiteSpace=wrap;rounded=0;" parent="1" vertex="1">
          <mxGeometry x="330" y="-935" width="120" height="25" as="geometry" />
        </mxCell>
        <mxCell id="3Ki8Myqe8ZQr1x6625yt-57" value="User resolved" style="text;html=1;align=center;verticalAlign=middle;whiteSpace=wrap;rounded=0;" parent="1" vertex="1">
          <mxGeometry x="169" y="-990" width="120" height="25" as="geometry" />
        </mxCell>
        <mxCell id="3Ki8Myqe8ZQr1x6625yt-18" value="Complete" style="text;html=1;align=center;verticalAlign=middle;whiteSpace=wrap;rounded=0;fontSize=14;" parent="1" vertex="1">
          <mxGeometry x="334" y="-710" width="86" height="30" as="geometry" />
        </mxCell>
      </root>
    </mxGraphModel>
  </diagram>
</mxfile>
